<?xml version="1.0" standalone="no"?>
<!DOCTYPE svg PUBLIC "-//W3C//DTD SVG 20010904//EN"
 "http://www.w3.org/TR/2001/REC-SVG-20010904/DTD/svg10.dtd">
<svg version="1.0" xmlns="http://www.w3.org/2000/svg"
 width="623.000000pt" height="588.000000pt" viewBox="0 0 623.000000 588.000000"
 preserveAspectRatio="xMidYMid meet" >
<metadata>

</metadata>
<g transform="translate(0.000000,588.000000) scale(0.100000,-0.100000)"
fill="#fa7317" stroke="#fa7317" stroke-width="70" stroke-linejoin="round" stroke-linecap="round" paint-order="stroke fill">
<path d="M2836 5409 c-381 -49 -669 -374 -693 -781 -21 -351 187 -678 518
-816 106 -44 187 -55 358 -50 133 5 154 8 230 37 131 48 215 103 316 205 212
215 286 481 215 782 -101 430 -483 682 -944 623z m263 -180 c308 -49 551 -363
527 -677 -22 -286 -185 -496 -456 -588 -44 -15 -85 -19 -200 -19 -132 0 -151
2 -218 27 -199 73 -331 207 -399 407 -34 101 -42 256 -19 356 55 231 234 421
461 486 69 20 208 24 304 8z"/>
<path d="M2921 5014 l-31 -26 0 -154 0 -154 -145 0 c-158 0 -197 -10 -211 -52
-12 -39 -6 -80 16 -102 19 -19 34 -21 180 -24 l160 -3 0 -159 0 -159 26 -20
c40 -31 87 -28 118 10 25 30 26 34 26 179 l0 149 161 3 c155 3 161 4 180 27
25 31 24 77 -3 118 l-23 33 -157 0 -158 0 0 154 0 154 -31 26 c-17 14 -41 26
-54 26 -13 0 -37 -12 -54 -26z"/>
<path d="M1685 4377 c-104 -51 -298 -147 -430 -214 l-240 -121 -239 -240
c-132 -132 -245 -251 -252 -264 -19 -33 -17 -62 6 -90 11 -15 114 -73 240
-137 l220 -112 0 -807 c0 -444 3 -817 6 -828 4 -16 78 -59 287 -167 333 -171
1006 -508 1405 -702 l283 -137 307 149 c315 152 1388 689 1567 785 l100 53 6
100 c4 55 7 429 8 830 l1 730 213 107 c116 58 222 116 235 128 16 15 22 32 22
61 0 38 -8 47 -247 291 l-248 251 -421 209 c-232 114 -436 211 -453 214 -41 8
-78 -16 -89 -59 -19 -72 -25 -67 351 -257 l346 -175 -849 -425 -850 -425 -846
423 c-465 233 -845 424 -843 426 2 2 152 78 334 170 181 92 338 174 347 183
43 39 -2 143 -60 143 -15 -1 -112 -42 -217 -93z m334 -979 c426 -213 778 -391
784 -397 6 -6 -50 -69 -154 -176 l-164 -166 -860 427 c-473 234 -862 428 -865
431 -2 2 72 80 165 173 l168 168 76 -36 c41 -21 424 -211 850 -424z m3008 288
l168 -164 -865 -432 -864 -432 -163 166 c-90 91 -163 169 -163 173 0 10 1685
853 1705 853 8 0 90 -74 182 -164z m-2742 -1131 c183 -88 207 -97 234 -90 14
4 98 79 188 167 89 89 166 158 170 154 9 -9 11 -1972 2 -1981 -4 -3 -392 187
-863 422 l-856 428 0 705 c0 388 3 715 6 727 6 21 35 7 503 -226 273 -137 550
-274 616 -306z m2501 -890 c-5 -13 -1700 -865 -1721 -865 -9 0 -6 1978 3 1984
5 3 86 -69 180 -159 109 -106 179 -165 192 -165 29 0 282 121 848 406 l487
246 9 -716 c5 -393 6 -722 2 -731z"/>
</g>
</svg>